<svg width="152" height="152" viewBox="0 0 152 152" fill="none" xmlns="http://www.w3.org/2000/svg">
<g filter="url(#filter0_d_206_17)">
<path d="M30.4798 88.2564C23.5874 81.3641 23.5874 70.1893 30.4798 63.2969L63.2969 30.4798C70.1893 23.5874 81.3641 23.5874 88.2564 30.4798L121.074 63.2969C127.966 70.1893 127.966 81.3641 121.074 88.2564L88.2564 121.074C81.3641 127.966 70.1893 127.966 63.2969 121.074L30.4798 88.2564Z" fill="#05A3FF"/>
</g>
<path d="M39 76.2102C39 74.35 39.365 72.7003 40.0949 71.2609C40.847 69.8215 41.8534 68.7143 43.1143 67.9392C44.3972 67.1641 45.8239 66.7766 47.3944 66.7766C48.7658 66.7766 49.9603 67.0534 50.9778 67.607C52.0174 68.1606 52.8469 68.8582 53.4662 69.6997V67.0756H58.1445V85.4777H53.4662V82.7871C52.869 83.6507 52.0395 84.3704 50.9778 84.9462C49.9382 85.4998 48.7326 85.7766 47.3612 85.7766C45.8128 85.7766 44.3972 85.378 43.1143 84.5808C41.8534 83.7836 40.847 82.6653 40.0949 81.2259C39.365 79.7644 39 78.0925 39 76.2102ZM53.4662 76.2766C53.4662 75.1472 53.245 74.184 52.8026 73.3868C52.3603 72.5674 51.763 71.9474 51.011 71.5266C50.2589 71.0837 49.4515 70.8623 48.5889 70.8623C47.7262 70.8623 46.9299 71.0726 46.1999 71.4934C45.47 71.9141 44.8728 72.5342 44.4082 73.3535C43.9659 74.1507 43.7447 75.103 43.7447 76.2102C43.7447 77.3174 43.9659 78.2918 44.4082 79.1333C44.8728 79.9526 45.47 80.5837 46.1999 81.0266C46.952 81.4695 47.7483 81.6909 48.5889 81.6909C49.4515 81.6909 50.2589 81.4806 51.011 81.0598C51.763 80.6169 52.3603 79.9969 52.8026 79.1997C53.245 78.3803 53.4662 77.406 53.4662 76.2766Z" fill="#F8F8F8"/>
<path d="M61.4868 76.2766C61.4868 74.3722 61.8739 72.7113 62.6481 71.2941C63.4223 69.8547 64.4951 68.7475 65.8665 67.9724C67.2379 67.1752 68.8084 66.7766 70.578 66.7766C72.8563 66.7766 74.7365 67.3524 76.2185 68.5039C77.7227 69.6333 78.7291 71.2277 79.2378 73.2871H74.2278C73.9623 72.4899 73.5089 71.8699 72.8674 71.427C72.248 70.9619 71.4739 70.7294 70.5448 70.7294C69.2177 70.7294 68.167 71.2166 67.3928 72.1909C66.6186 73.1432 66.2315 74.505 66.2315 76.2766C66.2315 78.026 66.6186 79.3879 67.3928 80.3623C68.167 81.3145 69.2177 81.7906 70.5448 81.7906C72.425 81.7906 73.6526 80.9491 74.2278 79.2661H79.2378C78.7291 81.2591 77.7227 82.8425 76.2185 84.0161C74.7144 85.1898 72.8342 85.7766 70.578 85.7766C68.8084 85.7766 67.2379 85.3891 65.8665 84.614C64.4951 83.8168 63.4223 82.7096 62.6481 81.2923C61.8739 79.853 61.4868 78.181 61.4868 76.2766Z" fill="#F8F8F8"/>
<path d="M105.468 66.8098C107.724 66.8098 109.538 67.5074 110.91 68.9025C112.303 70.2754 113 72.202 113 74.6822V85.4777H108.355V75.3133C108.355 73.8739 107.99 72.7778 107.26 72.0249C106.53 71.2498 105.535 70.8623 104.274 70.8623C103.013 70.8623 102.007 71.2498 101.254 72.0249C100.525 72.7778 100.16 73.8739 100.16 75.3133V85.4777H95.5144V75.3133C95.5144 73.8739 95.1495 72.7778 94.4195 72.0249C93.6896 71.2498 92.6942 70.8623 91.4334 70.8623C90.1504 70.8623 89.1329 71.2498 88.3809 72.0249C87.6509 72.7778 87.2859 73.8739 87.2859 75.3133V85.4777H82.6408V67.0756H87.2859V69.3011C87.8832 68.526 88.6463 67.9171 89.5753 67.4742C90.5265 67.0313 91.5661 66.8098 92.6942 66.8098C94.132 66.8098 95.4149 67.1199 96.543 67.7399C97.6711 68.3378 98.5448 69.2014 99.1642 70.3308C99.7614 69.2679 100.624 68.4153 101.752 67.7731C102.902 67.1309 104.141 66.8098 105.468 66.8098Z" fill="#F8F8F8"/>
<defs>
<filter id="filter0_d_206_17" x="0.310547" y="0.310471" width="150.932" height="150.932" filterUnits="userSpaceOnUse" color-interpolation-filters="sRGB">
<feFlood flood-opacity="0" result="BackgroundImageFix"/>
<feColorMatrix in="SourceAlpha" type="matrix" values="0 0 0 0 0 0 0 0 0 0 0 0 0 0 0 0 0 0 127 0" result="hardAlpha"/>
<feOffset/>
<feGaussianBlur stdDeviation="12.5"/>
<feComposite in2="hardAlpha" operator="out"/>
<feColorMatrix type="matrix" values="0 0 0 0 0.172549 0 0 0 0 0.568627 0 0 0 0 0.776471 0 0 0 0.5 0"/>
<feBlend mode="normal" in2="BackgroundImageFix" result="effect1_dropShadow_206_17"/>
<feBlend mode="normal" in="SourceGraphic" in2="effect1_dropShadow_206_17" result="shape"/>
</filter>
</defs>
</svg>
