<?xml version="1.0" encoding="UTF-8" standalone="no"?>
<svg
   width="191.46684"
   height="191.46684"
   viewBox="0 0 191.46684 191.46684"
   fill="none"
   version="1.1"
   id="svg11"
   xmlns="http://www.w3.org/2000/svg"
   xmlns:svg="http://www.w3.org/2000/svg">
  <defs
     id="defs15" />
  <rect
     x="-75"
     y="60.387501"
     width="150"
     height="150"
     rx="25"
     transform="rotate(-45)"
     fill="#35e792"
     id="rect2" />
  <mask
     id="mask0_324_704"
     maskUnits="userSpaceOnUse"
     x="37"
     y="35"
     width="140"
     height="141">
    <rect
       x="37"
       y="35.868198"
       width="140"
       height="140"
       fill="#c4c4c4"
       id="rect4" />
  </mask>
  <g
     mask="url(#mask0_324_704)"
     id="g9"
     transform="translate(-11.266193,-10.332582)">
    <path
       d="m 81.3975,156.268 c -0.84,0 -1.6275,-0.21 -2.3625,-0.63 -0.735,-0.42 -1.3125,-0.998 -1.7325,-1.733 L 64.0725,130.28 H 75.255 l 6.615,12.6 h 14.175 v -4.725 h -11.34 l -6.615,-12.6 H 61.5525 L 51.63,108.23 c -0.21,-0.42 -0.3675,-0.813 -0.4725,-1.181 C 51.0525,106.682 51,106.288 51,105.868 c 0,-0.42 0.0525,-0.814 0.1575,-1.181 0.105,-0.368 0.2625,-0.762 0.4725,-1.182 L 61.5525,86.1803 H 78.09 l 6.615,-12.6 h 11.34 v -4.725 H 81.87 l -6.615,12.6 H 64.0725 l 13.23,-23.625 c 0.42,-0.735 0.9975,-1.3125 1.7325,-1.7325 0.735,-0.42 1.5225,-0.63 2.3625,-0.63 h 18.585 c 1.3655,0 2.4935,0.4462 3.3865,1.3387 0.892,0.8925 1.339,2.0213 1.339,3.3863 V 87.7553 H 91.32 l -4.725,4.725 h 18.113 V 112.955 H 89.2725 L 83.13,100.355 H 67.695 l -4.725,4.725 h 17.01 l 6.3,12.6 h 18.428 v 33.863 c 0,1.365 -0.447,2.494 -1.339,3.386 -0.893,0.893 -2.021,1.339 -3.3865,1.339 z m 32.7605,0 c -1.365,0 -2.494,-0.446 -3.387,-1.339 -0.892,-0.892 -1.338,-2.021 -1.338,-3.386 V 117.68 h 18.427 l 6.3,-12.6 h 17.01 l -4.725,-4.725 H 131.01 l -6.142,12.6 H 109.433 V 92.4803 h 18.112 l -4.725,-4.725 H 109.433 V 60.1928 c 0,-1.365 0.446,-2.4938 1.338,-3.3863 0.893,-0.8925 2.022,-1.3387 3.387,-1.3387 h 18.585 c 0.84,0 1.627,0.21 2.362,0.63 0.735,0.42 1.313,0.9975 1.733,1.7325 l 13.23,23.625 h -11.183 l -6.615,-12.6 h -14.175 v 4.725 h 11.34 l 6.615,12.6 h 16.538 l 9.922,17.3247 c 0.21,0.42 0.368,0.814 0.473,1.182 0.105,0.367 0.157,0.761 0.157,1.181 0,0.42 -0.052,0.814 -0.157,1.181 -0.105,0.368 -0.263,0.761 -0.473,1.181 l -9.922,17.325 H 136.05 l -6.615,12.6 h -11.34 v 4.725 h 14.175 l 6.615,-12.6 h 11.183 l -13.23,23.625 c -0.42,0.735 -0.998,1.313 -1.733,1.733 -0.735,0.42 -1.522,0.63 -2.362,0.63 z"
       fill="#f8f8f8"
       id="path7" />
  </g>
</svg>
