<?xml version="1.0" encoding="UTF-8" standalone="no"?>
<svg
   width="191.46684"
   height="191.46684"
   viewBox="0 0 191.46684 191.46684"
   fill="none"
   version="1.1"
   id="svg149"
   xmlns="http://www.w3.org/2000/svg"
   xmlns:svg="http://www.w3.org/2000/svg">
  <defs
     id="defs153" />
  <rect
     x="-75"
     y="60.387501"
     width="150"
     height="150"
     rx="25"
     transform="rotate(-45)"
     fill="#9d35e7"
     id="rect140" />
  <mask
     id="mask0_324_697"
     maskUnits="userSpaceOnUse"
     x="37"
     y="35"
     width="140"
     height="141">
    <rect
       x="37"
       y="35.736301"
       width="140"
       height="140"
       fill="#c4c4c4"
       id="rect142" />
  </mask>
  <g
     mask="url(#mask0_324_697)"
     id="g147"
     transform="translate(-11.266193,-10.332582)">
    <path
       d="m 107.148,156.136 c -0.988,0 -1.952,-0.173 -2.891,-0.519 -0.939,-0.346 -1.803,-0.815 -2.594,-1.408 l -43.2846,-33.65 c -1.1858,-0.889 -1.7541,-2.05 -1.7047,-3.483 0.0494,-1.433 0.6671,-2.594 1.853,-3.484 0.7906,-0.593 1.68,-0.889 2.6682,-0.889 0.9882,0 1.8776,0.296 2.6682,0.889 l 43.2849,33.65 43.285,-33.65 c 0.79,-0.593 1.68,-0.889 2.668,-0.889 0.988,0 1.877,0.296 2.668,0.889 1.186,0.89 1.804,2.051 1.853,3.484 0.049,1.433 -0.519,2.594 -1.705,3.483 l -43.284,33.65 c -0.791,0.593 -1.656,1.062 -2.595,1.408 -0.938,0.346 -1.902,0.519 -2.89,0.519 z m 0,-22.532 c -0.988,0 -1.952,-0.173 -2.891,-0.519 -0.939,-0.346 -1.803,-0.815 -2.594,-1.408 L 58.2302,98.0277 c -0.5929,-0.4941 -1.0129,-1.0376 -1.26,-1.6306 -0.2471,-0.5929 -0.3706,-1.2353 -0.3706,-1.927 0,-0.6918 0.1235,-1.3342 0.3706,-1.9271 0.2471,-0.5929 0.6671,-1.1365 1.26,-1.6306 L 101.663,57.263 c 0.791,-0.5929 1.655,-1.0624 2.594,-1.4082 0.939,-0.3459 1.903,-0.5189 2.891,-0.5189 0.988,0 1.952,0.173 2.89,0.5189 0.939,0.3458 1.804,0.8153 2.595,1.4082 l 43.432,33.6494 c 0.593,0.4941 1.013,1.0377 1.26,1.6306 0.248,0.5929 0.371,1.2353 0.371,1.9271 0,0.6917 -0.123,1.3341 -0.371,1.927 -0.247,0.593 -0.667,1.1365 -1.26,1.6306 l -43.432,33.6493 c -0.791,0.593 -1.656,1.062 -2.595,1.408 -0.938,0.346 -1.902,0.519 -2.89,0.519 z m 0,-8.894 38.837,-30.2399 -38.837,-30.24 -38.8378,30.24 z"
       fill="#f8f8f8"
       id="path145" />
  </g>
</svg>
