<?xml version="1.0" encoding="UTF-8" standalone="no"?>
<svg
   width="191.46684"
   height="191.46684"
   viewBox="0 0 191.46684 191.46684"
   fill="none"
   version="1.1"
   id="svg281"
   xmlns="http://www.w3.org/2000/svg"
   xmlns:svg="http://www.w3.org/2000/svg">
  <defs
     id="defs285" />
  <rect
     x="-75"
     y="60.387501"
     width="150"
     height="150"
     rx="25"
     transform="rotate(-45)"
     fill="#ff4365"
     id="rect272" />
  <mask
     id="mask0_324_715"
     maskUnits="userSpaceOnUse"
     x="46"
     y="47"
     width="121"
     height="120">
    <rect
       x="46.5"
       y="47"
       width="120"
       height="120"
       fill="#c4c4c4"
       id="rect274" />
  </mask>
  <g
     mask="url(#mask0_324_715)"
     id="g279"
     transform="translate(-10.766192,-11.266581)">
    <path
       d="m 118.5,150.2 c -0.96,0 -1.8,-0.36 -2.52,-1.08 -0.72,-0.72 -1.08,-1.56 -1.08,-2.52 0,-1.04 0.36,-1.9 1.08,-2.58 0.72,-0.68 1.56,-1.02 2.52,-1.02 4.72,0 8.7,-0.96 11.94,-2.88 3.24,-1.92 4.86,-4.16 4.86,-6.72 0,-1.84 -1.18,-3.64 -3.54,-5.4 -2.36,-1.76 -5.54,-3.12 -9.54,-4.08 l 5.64,-5.64 c 5.04,1.52 8.74,3.62 11.1,6.3 2.36,2.68 3.54,5.62 3.54,8.82 0,5.36 -2.44,9.5 -7.32,12.42 -4.88,2.92 -10.44,4.38 -16.68,4.38 z M 80.1002,114.92 c -5.12,-1.12 -8.8,-2.88 -11.04,-5.28 -2.24,-2.4 -3.36,-4.88 -3.36,-7.44 0,-2.8002 1.04,-5.3202 3.12,-7.5602 2.08,-2.24 6.88,-4.72 14.4,-7.44 5.28,-1.92 8.68,-3.48 10.2,-4.68 1.52,-1.2 2.28,-2.6 2.28,-4.2 0,-2 -0.88,-3.72 -2.64,-5.16 -1.76,-1.44 -4.48,-2.16 -8.16,-2.16 -2.16,0 -4,0.28 -5.52,0.84 -1.52,0.56 -2.88,1.44 -4.08,2.64 -0.64,0.64 -1.46,1.02 -2.46,1.14 -1,0.12 -1.9,-0.14 -2.7,-0.78 -0.88,-0.64 -1.34,-1.44 -1.38,-2.4 -0.04,-0.96 0.26,-1.8 0.9,-2.52 1.36,-1.76 3.4,-3.22 6.12,-4.38 2.72,-1.16 5.76,-1.74 9.12,-1.74 5.44,0 9.8,1.3 13.08,3.9 3.2798,2.6 4.9198,6.14 4.9198,10.62 0,3.28 -1.14,6.06 -3.4198,8.34 -2.28,2.28 -6.74,4.66 -13.38,7.14 -5.36,2 -8.9,3.58 -10.62,4.74 -1.72,1.16 -2.58,2.3802 -2.58,3.6602 0,1.28 1.08,2.5 3.24,3.66 2.16,1.16 5.4,2.26 9.72,3.3 z m 59.5198,-18.4802 -15.36,-15.36 5.4,-5.4 c 1.44,-1.44 3.04,-2.16 4.8,-2.16 1.76,0 3.36,0.72 4.8,2.16 l 5.76,5.76 c 1.44,1.44 2.16,3.04 2.16,4.8 0,1.76 -0.72,3.36 -2.16,4.8 z M 77.7002,143 h 5.04 L 124.14,101.6 119.1,96.5598 77.7002,137.96 Z m -5.4,7.2 c -0.48,0 -0.9,-0.18 -1.26,-0.54 -0.36,-0.36 -0.54,-0.78 -0.54,-1.26 v -12.84 c 0,-0.16 0.16,-0.56 0.48,-1.2 L 119.1,86.2398 134.46,101.6 86.3402,149.72 c -0.16,0.16 -0.56,0.32 -1.2,0.48 z"
       fill="#f8f8f8"
       id="path277" />
  </g>
</svg>
