<?xml version="1.0" encoding="UTF-8" standalone="no"?>
<svg
   width="191.46684"
   height="191.46684"
   viewBox="0 0 191.46684 191.46684"
   fill="none"
   version="1.1"
   id="svg413"
   xmlns="http://www.w3.org/2000/svg"
   xmlns:svg="http://www.w3.org/2000/svg">
  <defs
     id="defs417" />
  <rect
     x="-75"
     y="60.387501"
     width="150"
     height="150"
     rx="25"
     transform="rotate(-45)"
     fill="#1e6cff"
     id="rect404" />
  <mask
     id="mask0_324_710"
     maskUnits="userSpaceOnUse"
     x="36"
     y="35"
     width="141"
     height="141">
    <rect
       x="36.5"
       y="35.6035"
       width="140"
       height="140"
       fill="#c4c4c4"
       id="rect406" />
  </mask>
  <g
     mask="url(#mask0_324_710)"
     id="g411"
     transform="translate(-10.766193,-10.332582)">
    <path
       d="m 78.4998,156.003 c -6.8968,0 -12.821,-2.476 -17.7726,-7.427 -4.9516,-4.952 -7.4274,-10.876 -7.4274,-17.773 0,-4.775 1.1274,-9.063 3.3821,-12.865 2.2547,-3.802 5.239,-6.764 8.9526,-8.886 1.5032,-0.973 2.9179,-1.106 4.2443,-0.398 1.3263,0.707 1.9894,1.856 1.9894,3.448 0,1.15 -0.2873,2.012 -0.8621,2.586 -0.5747,0.575 -1.26,1.128 -2.0558,1.658 -2.2989,1.503 -4.1558,3.537 -5.5705,6.101 -1.4147,2.565 -2.1221,5.35 -2.1221,8.356 0,4.775 1.68,8.842 5.04,12.202 3.36,3.36 7.4274,5.04 12.2021,5.04 4.7747,0 8.8421,-1.68 12.2021,-5.04 3.36,-3.36 5.04,-7.427 5.04,-12.202 0,-1.149 0.3758,-2.1 1.1274,-2.851 0.7516,-0.752 1.7021,-1.128 2.8516,-1.128 h 29.0461 c 0.708,-0.796 1.548,-1.437 2.52,-1.923 0.973,-0.486 1.945,-0.729 2.918,-0.729 1.857,0 3.426,0.641 4.708,1.923 1.283,1.282 1.924,2.851 1.924,4.708 0,1.769 -0.641,3.316 -1.924,4.642 -1.282,1.327 -2.851,1.99 -4.708,1.99 -0.973,0 -1.945,-0.243 -2.918,-0.73 -0.972,-0.486 -1.812,-1.127 -2.52,-1.923 h -25.332 c -1.238,6.101 -4.1783,11.163 -8.8205,15.186 -4.6421,4.024 -10.0136,6.035 -16.1147,6.035 z m 0,-18.568 c -1.7684,0 -3.3158,-0.663 -4.6421,-1.99 -1.3263,-1.326 -1.9895,-2.873 -1.9895,-4.642 0,-1.591 0.5527,-2.984 1.6579,-4.178 1.1053,-1.193 2.4979,-2.011 4.1779,-2.453 L 92.4261,99.3694 c -2.6526,-2.5642 -4.7526,-5.46 -6.3,-8.6873 -1.5473,-3.2274 -2.321,-6.6537 -2.321,-10.279 0,-6.9852 2.4758,-12.9316 7.4273,-17.8389 4.9516,-4.9074 10.8756,-7.3611 17.7726,-7.3611 5.836,0 11.008,1.7906 15.518,5.3716 4.509,3.5811 7.472,8.1126 8.886,13.5947 0.354,1.4148 0.111,2.5864 -0.729,3.5148 -0.84,0.9284 -1.879,1.3926 -3.117,1.3926 -0.973,0 -1.791,-0.3095 -2.454,-0.9284 -0.663,-0.619 -1.127,-1.4147 -1.392,-2.3874 -0.973,-3.7137 -3.007,-6.7421 -6.101,-9.0852 -3.095,-2.3432 -6.632,-3.5148 -10.611,-3.5148 -4.775,0 -8.842,1.68 -12.202,5.04 -3.36,3.36 -5.04,7.4274 -5.04,12.2021 0,3.0063 0.7294,5.8137 2.1884,8.4221 1.4589,2.6085 3.3821,4.6642 5.7695,6.1674 0.9721,0.7074 1.6141,1.5253 1.9231,2.4537 0.309,0.9284 0.199,1.8347 -0.332,2.7187 l -16.7111,28.118 c 0.1768,0.531 0.3094,0.995 0.3979,1.393 0.0884,0.398 0.1326,0.773 0.1326,1.127 0,1.769 -0.6411,3.316 -1.9232,4.642 -1.2821,1.327 -2.8516,1.99 -4.7084,1.99 z m 55.7052,18.568 c -2.299,0 -4.598,-0.287 -6.897,-0.862 -2.299,-0.575 -4.288,-1.437 -5.968,-2.586 -1.68,-1.15 -2.255,-2.631 -1.724,-4.443 0.53,-1.813 1.724,-2.719 3.581,-2.719 0.707,0 1.348,0.11 1.923,0.331 0.575,0.221 1.127,0.42 1.658,0.597 1.503,0.619 2.829,1.061 3.979,1.326 1.149,0.266 2.299,0.398 3.448,0.398 4.775,0 8.842,-1.68 12.202,-5.04 3.36,-3.36 5.04,-7.427 5.04,-12.202 0,-4.775 -1.68,-8.842 -5.04,-12.202 -3.36,-3.36 -7.427,-5.04 -12.202,-5.04 -0.973,0 -1.879,0.066 -2.719,0.199 -0.84,0.133 -1.658,0.332 -2.454,0.597 -1.149,0.353 -2.232,0.353 -3.249,0 -1.017,-0.354 -1.791,-0.973 -2.321,-1.857 l -15.12,-25.4653 c -1.769,-0.3537 -3.205,-1.1274 -4.311,-2.321 -1.105,-1.1937 -1.658,-2.6306 -1.658,-4.3106 0,-1.8568 0.664,-3.4263 1.99,-4.7084 1.326,-1.2821 2.874,-1.9232 4.642,-1.9232 1.857,0 3.426,0.6411 4.708,1.9232 1.283,1.2821 1.924,2.8516 1.924,4.7084 0,0.3537 -0.022,0.6853 -0.067,0.9948 -0.044,0.3094 -0.154,0.7736 -0.331,1.3926 L 128.9,106.134 c 0.972,-0.177 1.923,-0.31 2.851,-0.398 0.929,-0.089 1.747,-0.133 2.454,-0.133 6.985,0 12.932,2.454 17.839,7.361 4.907,4.908 7.361,10.854 7.361,17.839 0,6.897 -2.454,12.821 -7.361,17.773 -4.907,4.951 -10.854,7.427 -17.839,7.427 z"
       fill="#f8f8f8"
       id="path409" />
  </g>
</svg>
