<?xml version="1.0" encoding="UTF-8" standalone="no"?>
<svg
   width="191.46684"
   height="191.46684"
   viewBox="0 0 191.46684 191.46684"
   fill="none"
   version="1.1"
   id="svg552"
   xmlns="http://www.w3.org/2000/svg"
   xmlns:svg="http://www.w3.org/2000/svg">
  <defs
     id="defs556" />
  <rect
     x="-75"
     y="60.387501"
     width="150"
     height="150"
     rx="25"
     transform="rotate(-45)"
     fill="#6f16ff"
     id="rect536" />
  <mask
     id="mask0_324_684"
     maskUnits="userSpaceOnUse"
     x="46"
     y="70"
     width="112"
     height="81">
    <path
       d="m 64.6264,150.976 c -5.3219,0 -9.7145,-1.852 -13.1779,-5.556 -3.4634,-3.704 -5.2796,-8.04 -5.4485,-13.007 0,-0.673 0.0422,-1.431 0.1267,-2.273 0.0845,-0.842 0.2112,-1.599 0.3801,-2.273 L 57.1505,85.4378 c 1.1826,-4.4618 3.612,-8.1238 7.2883,-10.9861 3.6729,-2.8623 7.7902,-4.2935 12.3517,-4.2935 h 49.4165 c 4.562,0 8.679,1.4312 12.352,4.2935 3.676,2.8623 6.106,6.5243 7.288,10.9861 l 10.644,42.4292 c 0.169,0.758 0.318,1.536 0.446,2.334 0.125,0.801 0.188,1.581 0.188,2.339 0,5.051 -1.795,9.386 -5.383,13.006 -3.592,3.62 -8.049,5.43 -13.37,5.43 -3.548,0 -6.843,-0.926 -9.884,-2.778 -3.041,-1.852 -5.322,-4.378 -6.842,-7.577 l -3.548,-7.324 c -0.422,-0.926 -1.034,-1.577 -1.835,-1.955 -0.804,-0.38 -1.713,-0.57 -2.727,-0.57 H 89.4615 c -1.0137,0 -1.9209,0.19 -2.7217,0.57 -0.8042,0.378 -1.4175,1.029 -1.8399,1.955 l -3.5478,7.324 c -1.5206,3.199 -3.8013,5.725 -6.8424,7.577 -3.041,1.852 -6.3355,2.778 -9.8833,2.778 z m 0.3801,-10.102 c 1.436,0 2.8096,-0.379 4.1206,-1.137 1.3076,-0.757 2.3838,-1.936 3.2286,-3.535 l 3.5478,-7.198 c 1.2671,-2.61 3.1036,-4.651 5.5094,-6.122 2.4092,-1.475 5.092,-2.213 8.0486,-2.213 h 24.0745 c 2.872,0 5.533,0.758 7.983,2.273 2.45,1.516 4.35,3.536 5.702,6.062 l 3.548,7.198 c 0.845,1.599 1.923,2.778 3.234,3.535 1.307,0.758 2.679,1.137 4.115,1.137 2.196,0 4.182,-0.758 5.955,-2.273 1.774,-1.515 2.704,-3.494 2.788,-5.935 v -1.202 c 0,-0.378 -0.084,-0.777 -0.253,-1.197 L 135.964,87.9634 c -0.591,-2.273 -1.774,-4.1251 -3.548,-5.5562 -1.774,-1.4312 -3.843,-2.1468 -6.209,-2.1468 H 76.7905 c -2.3652,0 -4.4551,0.7156 -6.2696,2.1468 -1.8179,1.4311 -2.9802,3.2832 -3.4871,5.5562 L 56.3902,130.267 c -0.1689,0.505 -0.2534,1.262 -0.2534,2.273 0,2.441 0.9292,4.441 2.7876,6 1.8584,1.556 3.8858,2.334 6.0821,2.334 z m 44.0955,-35.358 c -1.437,0 -2.639,-0.485 -3.609,-1.455 -0.973,-0.966 -1.46,-2.165 -1.46,-3.596 0,-1.4312 0.487,-2.6317 1.46,-3.6015 0.97,-0.9665 2.172,-1.4497 3.609,-1.4497 1.436,0 2.64,0.4832 3.613,1.4497 0.97,0.9698 1.455,2.1703 1.455,3.6015 0,1.431 -0.485,2.63 -1.455,3.596 -0.973,0.97 -2.177,1.455 -3.613,1.455 z m 10.136,-10.1022 c -1.436,0 -2.639,-0.4849 -3.608,-1.4547 -0.974,-0.9665 -1.46,-2.1653 -1.46,-3.5964 0,-1.4312 0.486,-2.6317 1.46,-3.6015 0.969,-0.9664 2.172,-1.4496 3.608,-1.4496 1.436,0 2.639,0.4832 3.609,1.4496 0.973,0.9698 1.46,2.1703 1.46,3.6015 0,1.4311 -0.487,2.6299 -1.46,3.5964 -0.97,0.9698 -2.173,1.4547 -3.609,1.4547 z m 0,20.2042 c -1.436,0 -2.639,-0.485 -3.608,-1.454 -0.974,-0.967 -1.46,-2.166 -1.46,-3.597 0,-1.431 0.486,-2.631 1.46,-3.601 0.969,-0.967 2.172,-1.45 3.608,-1.45 1.436,0 2.639,0.483 3.609,1.45 0.973,0.97 1.46,2.17 1.46,3.601 0,1.431 -0.487,2.63 -1.46,3.597 -0.97,0.969 -2.173,1.454 -3.609,1.454 z m 10.137,-10.102 c -1.436,0 -2.639,-0.485 -3.609,-1.455 -0.973,-0.966 -1.459,-2.165 -1.459,-3.596 0,-1.4312 0.486,-2.6317 1.459,-3.6015 0.97,-0.9665 2.173,-1.4497 3.609,-1.4497 1.436,0 2.639,0.4832 3.609,1.4497 0.973,0.9698 1.46,2.1703 1.46,3.6015 0,1.431 -0.487,2.63 -1.46,3.596 -0.97,0.97 -2.173,1.455 -3.609,1.455 z"
       fill="#1c1b1f"
       id="path538" />
  </mask>
  <g
     mask="url(#mask0_324_684)"
     id="g543"
     transform="translate(-11.266193,-10.332582)">
    <path
       d="M 34.1377,119.547 V 48.8311 h 58.7769 l -4.2743,21.1557 c 2.8996,0.145 5.08,2.6994 4.7679,5.5858 l -0.0333,0.308 c -0.2659,2.4599 -2.2652,4.3707 -4.7346,4.525 l 4.2743,36.9504 h 34.7294 l 12.021,7.48 5.714,3.473 c 0,0 0.015,-1.812 -0.673,-4.562 -1.336,-5.343 8.549,-9.083 10.419,-2.938 0.492,1.616 1.207,5.363 1.207,5.363 l 13.625,-1.336 v 35.12 H 34.1377 Z"
       fill="#f8f8f8"
       id="path541" />
  </g>
  <mask
     id="mask1_324_684"
     maskUnits="userSpaceOnUse"
     x="84"
     y="33"
     width="102"
     height="103">
    <path
       d="M 127.412,33.4717 186,76.4144 143.057,135.002 84.4693,92.0597 Z"
       fill="#d9d9d9"
       id="path545" />
  </mask>
  <g
     mask="url(#mask1_324_684)"
     id="g550"
     transform="translate(-11.266193,-10.332582)">
    <path
       d="m 115.858,109.343 c -4.04,-2.961 -5.266,-8.453 -2.869,-12.8509 l 0.71,-1.303 c -0.236,-0.3606 -0.442,-0.7619 -0.619,-1.2039 -0.176,-0.442 -0.332,-0.8691 -0.468,-1.2813 L 111.238,92.38 c -4.923,-1.1603 -8.204,-5.8136 -7.644,-10.8403 l 0.174,-1.5661 c 0.559,-5.0214 4.777,-8.8368 9.829,-8.8924 l 1.365,-0.015 c 0.109,-0.2332 0.222,-0.4312 0.342,-0.594 l 0.805,-1.0985 c 0.119,-0.1627 0.274,-0.3309 0.464,-0.5045 l -0.392,-1.2899 c -1.47,-4.8418 0.908,-10.0186 5.539,-12.0576 l 1.405,-0.6188 c 4.612,-2.0306 10.015,-0.3122 12.606,4.0098 l 0.784,1.3074 c 0.464,-0.0354 0.916,-0.0329 1.357,0.0075 0.438,0.0408 0.864,0.1194 1.279,0.2359 l 1.074,-1.1183 c 3.471,-3.6153 9.083,-4.1026 13.125,-1.1396 l 1.257,0.9209 c 4.042,2.9629 5.267,8.4607 2.864,12.8593 l -0.743,1.3606 c 0.236,0.3606 0.45,0.7513 0.642,1.1722 0.19,0.4225 0.339,0.8601 0.444,1.313 l 1.392,0.3279 c 4.915,1.1586 8.195,5.8005 7.646,10.8208 l -0.164,1.5012 c -0.55,5.03 -4.771,8.8563 -9.831,8.9119 l -1.348,0.0148 -1.208,1.6478 c -0.119,0.1628 -0.273,0.3309 -0.463,0.5046 l 0.388,1.2774 c 1.471,4.847 -0.914,10.029 -5.552,12.064 l -1.455,0.637 c -4.63,2.031 -10.047,0.286 -12.622,-4.065 l -0.686,-1.159 c -0.434,-0.005 -0.877,-0.017 -1.331,-0.037 -0.455,-0.021 -0.89,-0.09 -1.305,-0.206 l -1.029,1.069 c -3.472,3.61 -9.078,4.094 -13.118,1.133 z m 3.302,-7.525 4.027,2.953 5.613,-5.7373 c 1.5,0.599 3.05,1.0013 4.651,1.2063 1.602,0.203 3.208,0.145 4.819,-0.175 l 4.208,6.93 4.547,-2.108 -2.263,-7.6633 c 0.65,-0.4612 1.265,-0.9803 1.843,-1.5573 0.58,-0.5758 1.123,-1.2096 1.63,-1.9012 0.507,-0.6917 0.948,-1.4006 1.322,-2.1267 0.376,-0.725 0.687,-1.4671 0.93,-2.2265 l 8.051,-0.1037 0.58,-5.0158 -7.859,-1.8205 c -0.18,-1.6326 -0.593,-3.2024 -1.239,-4.7095 -0.648,-1.5055 -1.518,-2.8778 -2.612,-4.1169 l 3.904,-6.9896 -4.089,-2.997 -5.446,5.7655 c -1.581,-0.6586 -3.18,-1.08 -4.796,-1.264 -1.616,-0.184 -3.25,-0.1307 -4.902,0.1598 l -4.086,-6.8412 -4.608,2.0636 2.308,7.6023 c -0.68,0.5019 -1.302,1.0307 -1.864,1.5866 -0.566,0.5563 -1.117,1.2006 -1.654,1.933 -0.507,0.6916 -0.947,1.4005 -1.322,2.1267 -0.376,0.7249 -0.701,1.4874 -0.975,2.2875 l -7.944,0.0873 -0.581,5.0159 7.799,1.7758 c 0.22,1.6623 0.664,3.254 1.333,4.775 0.666,1.5215 1.531,2.9221 2.594,4.2019 z"
       fill="#f8f8f8"
       id="path548" />
  </g>
</svg>
