<svg width="100" height="78" viewBox="0 0 100 78" fill="none" xmlns="http://www.w3.org/2000/svg">
<g clip-path="url(#clip0_324_663)">
<path d="M84.6542 6.89847C78.2806 3.97396 71.4458 1.81931 64.2996 0.585255C64.1694 0.561438 64.0394 0.620958 63.9724 0.74C63.0934 2.3034 62.1197 4.34297 61.4379 5.94607C53.7517 4.79537 46.1049 4.79537 38.5763 5.94607C37.8944 4.30734 36.8854 2.3034 36.0024 0.74C35.9354 0.624929 35.8054 0.56541 35.6752 0.585255C28.533 1.81537 21.6982 3.97002 15.3206 6.89847C15.2654 6.92227 15.218 6.96199 15.1866 7.01354C2.22247 26.3817 -1.32896 45.2738 0.413251 63.9317C0.421134 64.023 0.472374 64.1103 0.543325 64.1658C9.0967 70.4472 17.3821 74.2606 25.5137 76.7882C25.6438 76.8279 25.7817 76.7803 25.8645 76.6731C27.788 74.0464 29.5027 71.2766 30.9728 68.364C31.0596 68.1934 30.9768 67.991 30.7994 67.9235C28.0797 66.8919 25.49 65.634 22.9989 64.2055C22.8018 64.0904 22.7861 63.8086 22.9673 63.6737C23.4916 63.2809 24.0159 62.8721 24.5165 62.4595C24.607 62.3841 24.7332 62.3682 24.8397 62.4158C41.2054 69.8878 58.9231 69.8878 75.0956 62.4158C75.2021 62.3643 75.3283 62.3802 75.4228 62.4555C75.9235 62.8682 76.4477 63.2809 76.9759 63.6737C77.1572 63.8086 77.1454 64.0904 76.9483 64.2055C74.4572 65.6617 71.8675 66.8919 69.1438 67.9196C68.9665 67.9871 68.8876 68.1934 68.9744 68.364C70.4761 71.2726 72.1907 74.0423 74.0787 76.6692C74.1576 76.7803 74.2994 76.8279 74.4296 76.7882C82.6006 74.2606 90.8859 70.4472 99.4393 64.1658C99.5142 64.1103 99.5615 64.0269 99.5694 63.9357C101.655 42.3651 96.077 23.6279 84.7842 7.01748C84.7566 6.96199 84.7094 6.92227 84.6542 6.89847ZM33.4168 52.571C28.4896 52.571 24.4297 48.0475 24.4297 42.4921C24.4297 36.9368 28.4108 32.4133 33.4168 32.4133C38.462 32.4133 42.4825 36.9765 42.4037 42.4921C42.4037 48.0475 38.4225 52.571 33.4168 52.571ZM66.6448 52.571C61.7177 52.571 57.6579 48.0475 57.6579 42.4921C57.6579 36.9368 61.6389 32.4133 66.6448 32.4133C71.6901 32.4133 75.7106 36.9765 75.6318 42.4921C75.6318 48.0475 71.6901 52.571 66.6448 52.571Z" fill="#05A3FF"/>
</g>
<defs>
<clipPath id="clip0_324_663">
<rect width="100" height="77.4648" fill="white"/>
</clipPath>
</defs>
</svg>
