<svg width="100" height="100" viewBox="0 0 100 100" fill="none" xmlns="http://www.w3.org/2000/svg">
<path d="M50 0C22.3884 0 0 22.9688 0 51.2723C0 73.9286 14.3304 93.125 34.1964 99.9107C34.4751 99.9712 34.7595 100.001 35.0446 100C36.8973 100 37.6116 98.6384 37.6116 97.4554C37.6116 96.2277 37.567 93.0134 37.5446 88.7277C35.8907 89.1154 34.1987 89.3176 32.5 89.3304C22.8795 89.3304 20.692 81.8527 20.692 81.8527C18.4152 75.9375 15.1339 74.3527 15.1339 74.3527C10.7812 71.2946 15.1116 71.2054 15.4464 71.2054H15.4688C20.4911 71.6518 23.125 76.5179 23.125 76.5179C25.625 80.8929 28.9732 82.1205 31.9643 82.1205C33.942 82.081 35.8892 81.6246 37.6786 80.7812C38.125 77.4777 39.4196 75.2232 40.8482 73.9286C29.7545 72.6339 18.0804 68.2366 18.0804 48.5938C18.0804 42.9911 20.0223 38.4152 23.2143 34.8438C22.7009 33.5491 20.9821 28.3259 23.7054 21.2723C24.0706 21.1849 24.4461 21.1474 24.8214 21.1607C26.6295 21.1607 30.7143 21.8527 37.4554 26.5402C45.6463 24.2485 54.3091 24.2485 62.5 26.5402C69.2411 21.8527 73.3259 21.1607 75.1339 21.1607C75.5093 21.1474 75.8847 21.1849 76.25 21.2723C78.9732 28.3259 77.2545 33.5491 76.7411 34.8438C79.933 38.4375 81.875 43.0134 81.875 48.5938C81.875 68.2812 70.1786 72.6116 59.0402 73.8839C60.8259 75.4688 62.433 78.5937 62.433 83.3705C62.433 90.2232 62.3661 95.7589 62.3661 97.433C62.3661 98.6384 63.058 100 64.9107 100C65.2106 100.001 65.5099 99.9714 65.8036 99.9107C85.692 93.125 100 73.9062 100 51.2723C100 22.9688 77.6116 0 50 0Z" fill="#05A3FF"/>
</svg>
