<svg width="100" height="76" viewBox="0 0 100 76" fill="none" xmlns="http://www.w3.org/2000/svg">
<path d="M99.3575 16.5626C99.3575 7.77246 92.8918 0.70126 84.9025 0.70126C74.0808 0.195336 63.0443 0 51.7655 0H48.2495C36.998 0 25.942 0.195337 15.1203 0.703213C7.15053 0.703213 0.684868 7.81349 0.684868 16.6037C0.196525 23.5557 -0.0105324 30.5097 0.00118786 37.4637C-0.0183459 44.4177 0.203036 51.3782 0.665334 58.3452C0.665334 67.1354 7.13099 74.2652 15.1007 74.2652C26.4694 74.7926 38.131 75.027 49.988 75.0075C61.8645 75.0466 73.4935 74.7991 84.8752 74.2652C92.8645 74.2652 99.3301 67.1354 99.3301 58.3452C99.7989 51.3717 100.014 44.4177 99.9943 37.4442C100.039 30.4902 99.8263 23.5297 99.3575 16.5626ZM40.436 56.6263V18.2425L68.7599 37.4246L40.436 56.6263Z" fill="#05A3FF"/>
</svg>
