<?xml version="1.0" encoding="UTF-8" standalone="no"?>
<svg
   width="100.9325"
   height="100.9325"
   viewBox="0 0 100.9325 100.9325"
   fill="none"
   version="1.1"
   id="svg12"
   xmlns="http://www.w3.org/2000/svg"
   xmlns:svg="http://www.w3.org/2000/svg">
  <defs
     id="defs16" />
  <g
     id="g4"
     transform="translate(-25.3105,-25.3105)">
    <path
       d="m 30.4798,88.2564 c -6.8924,-6.8923 -6.8924,-18.0671 0,-24.9595 L 63.2969,30.4798 c 6.8924,-6.8924 18.0672,-6.8924 24.9595,0 l 32.8176,32.8171 c 6.892,6.8924 6.892,18.0672 0,24.9595 L 88.2564,121.074 c -6.8923,6.892 -18.0671,6.892 -24.9595,0 z"
       fill="#05a3ff"
       id="path2" />
  </g>
  <path
     d="m 13.6895,50.8997 c 0,-1.8602 0.365,-3.5099 1.0949,-4.9493 0.7521,-1.4394 1.7585,-2.5466 3.0194,-3.3217 1.2829,-0.7751 2.7096,-1.1626 4.2801,-1.1626 1.3714,0 2.5659,0.2768 3.5834,0.8304 1.0396,0.5536 1.8691,1.2512 2.4884,2.0927 v -2.6241 h 4.6783 v 18.4021 h -4.6783 v -2.6906 c -0.5972,0.8636 -1.4267,1.5833 -2.4884,2.1591 -1.0396,0.5536 -2.2452,0.8304 -3.6166,0.8304 -1.5484,0 -2.964,-0.3986 -4.2469,-1.1958 -1.2609,-0.7972 -2.2673,-1.9155 -3.0194,-3.3549 -0.7299,-1.4615 -1.0949,-3.1334 -1.0949,-5.0157 z m 14.4662,0.0664 c 0,-1.1294 -0.2212,-2.0926 -0.6636,-2.8898 -0.4423,-0.8194 -1.0396,-1.4394 -1.7916,-1.8602 -0.7521,-0.4429 -1.5595,-0.6643 -2.4221,-0.6643 -0.8627,0 -1.659,0.2103 -2.389,0.6311 -0.7299,0.4207 -1.3271,1.0408 -1.7917,1.8601 -0.4423,0.7972 -0.6635,1.7495 -0.6635,2.8567 0,1.1072 0.2212,2.0816 0.6635,2.9231 0.4646,0.8193 1.0618,1.4504 1.7917,1.8933 0.7521,0.4429 1.5484,0.6643 2.389,0.6643 0.8626,0 1.67,-0.2103 2.4221,-0.6311 0.752,-0.4429 1.3493,-1.0629 1.7916,-1.8601 0.4424,-0.8194 0.6636,-1.7937 0.6636,-2.9231 z"
     fill="#f8f8f8"
     id="path6" />
  <path
     d="m 36.1763,50.9661 c 0,-1.9044 0.3871,-3.5653 1.1613,-4.9825 0.7742,-1.4394 1.847,-2.5466 3.2184,-3.3217 1.3714,-0.7972 2.9419,-1.1958 4.7115,-1.1958 2.2783,0 4.1585,0.5758 5.6405,1.7273 1.5042,1.1294 2.5106,2.7238 3.0193,4.7832 h -5.0101 c -0.2654,-0.7972 -0.7188,-1.4172 -1.3603,-1.8601 -0.6194,-0.4651 -1.3935,-0.6976 -2.3226,-0.6976 -1.3271,0 -2.3778,0.4872 -3.152,1.4615 -0.7742,0.9523 -1.1613,2.3141 -1.1613,4.0857 0,1.7494 0.3871,3.1113 1.1613,4.0857 0.7742,0.9522 1.8249,1.4283 3.152,1.4283 1.8802,0 3.1078,-0.8415 3.6829,-2.5245 h 5.0101 c -0.5087,1.993 -1.5151,3.5764 -3.0193,4.75 -1.5041,1.1737 -3.3843,1.7605 -5.6405,1.7605 -1.7696,0 -3.3401,-0.3875 -4.7115,-1.1626 -1.3714,-0.7972 -2.4442,-1.9044 -3.2184,-3.3217 -0.7742,-1.4393 -1.1613,-3.1113 -1.1613,-5.0157 z"
     fill="#f8f8f8"
     id="path8" />
  <path
     d="m 80.1575,41.4993 c 2.256,0 4.07,0.6976 5.442,2.0927 1.393,1.3729 2.09,3.2995 2.09,5.7797 v 10.7955 h -4.645 V 50.0028 c 0,-1.4394 -0.365,-2.5355 -1.095,-3.2884 -0.73,-0.7751 -1.725,-1.1626 -2.986,-1.1626 -1.261,0 -2.267,0.3875 -3.02,1.1626 -0.729,0.7529 -1.094,1.849 -1.094,3.2884 V 60.1672 H 70.2039 V 50.0028 c 0,-1.4394 -0.3649,-2.5355 -1.0949,-3.2884 -0.7299,-0.7751 -1.7253,-1.1626 -2.9861,-1.1626 -1.283,0 -2.3005,0.3875 -3.0525,1.1626 -0.73,0.7529 -1.095,1.849 -1.095,3.2884 V 60.1672 H 57.3303 V 41.7651 h 4.6451 v 2.2255 c 0.5973,-0.7751 1.3604,-1.384 2.2894,-1.8269 0.9512,-0.4429 1.9908,-0.6644 3.1189,-0.6644 1.4378,0 2.7207,0.3101 3.8488,0.9301 1.1281,0.5979 2.0018,1.4615 2.6212,2.5909 0.5972,-1.0629 1.4598,-1.9155 2.5878,-2.5577 1.15,-0.6422 2.389,-0.9633 3.716,-0.9633 z"
     fill="#f8f8f8"
     id="path10" />
</svg>
